<?xml version="1.0" encoding="UTF-8"?>
<svg width="746pt" height="939pt" version="1.0" viewBox="0 0 746 939" xmlns="http://www.w3.org/2000/svg"><path d="m381.7 14.071c-4.5119-0.29309-7.9244 1.6601-14.399 5.0288-32.8 17.2-127.4 67.999-160.8 86.399-54.5 30-85 46.901-98.5 54.501-8.5 4.7-25.099 14-36.899 20.6s-22.1 12.899-22.9 14.199c-1.4 2.1-1.5004 22-1.4004 185.5 0.3 250.9 1.0993 348.4 2.7993 351.9 0.8 1.5 3.2997 3.7991 5.6997 5.0991 2.3 1.3 25.101 14 50.701 28.2 61.3 34 81.5 45.401 159.7 90.101 119.8 68.6 116.2 66.6 122 67.2l5.2002 0.39991 35.799-22c70.4-43.2 127.2-76.6 239.2-140.7 29.4-16.8 46.2-27 47.5-28.8l2.0991-2.7993 0.30029-267.2c0.2-257.8 0.1004-267.3-1.5996-270.2-1.4-2.2-7.0008-5.6999-22.301-13.9-11.2-6-36.4-19.601-55.9-30.101-19.5-10.6-61.6-33.1-93.5-50-31.9-16.9-68.3-36.2-81-43-12.6-6.7-35.201-18.599-50.101-26.399-18.281-9.5625-25.9-13.652-31.701-14.029z" fill="#fff"/><path d="m367.3 19.1c-32.8 17.2-127.4 68-160.8 86.4-54.5 30-85 46.9-98.5 54.5-8.5 4.7-25.1 14-36.9 20.6s-22.1 12.9-22.9 14.2c-1.4 2.1-1.5 22-1.4 185.5 0.3 250.9 1.1 348.4 2.8 351.9 0.8 1.5 3.3 3.8 5.7 5.1 2.3 1.3 25.1 14 50.7 28.2 61.3 34 81.5 45.4 159.7 90.1 119.8 68.6 116.2 66.6 122 67.2l5.2 0.4 35.8-22c70.4-43.2 127.2-76.6 239.2-140.7 29.4-16.8 46.2-27 47.5-28.8l2.1-2.8 0.3-267.2c0.2-257.8 0.1-267.3-1.6-270.2-1.4-2.2-7-5.7-22.3-13.9-11.2-6-36.4-19.6-55.9-30.1-19.5-10.6-61.6-33.1-93.5-50s-68.3-36.2-81-43c-12.6-6.7-35.2-18.6-50.1-26.4-32.5-17-31.3-16.7-46.1-9zm72.1 48.8c31.2 16.4 56.7 30.2 56.7 30.5 0 0.4-20.4 11.9-45.3 25.5-56.9 31.1-95.3 52.3-132.3 73.3-64.6 36.6-99.6 56.8-101 58.4-0.5 0.6-3.6 2.8-6.7 4.8l-5.8 3.6v68.5l9.3 4.7c5 2.6 24.1 13 42.2 23.2l33 18.4 0.3-33.8 0.2-33.7 6.3-3.8c3.4-2.1 6.4-4.1 6.7-4.5 1.1-1.4 188.1-108.1 254.3-145.2l24.8-13.9 23.7 12.7c13 7 35.5 19 50 26.7 14.4 7.7 25.9 14.4 25.5 14.8s-24.6 14.3-53.7 30.9c-77.5 44.2-120 69-233.3 136.2l-3.2 1.9-24.8-13.9c-35.5-19.8-57.5-32-59.5-32.8-1.7-0.6-1.8 0.4-1.8 12.5v13l4.3 2.4c6.9 3.9 58.7 32.9 64.5 36l5.2 2.9v119.4c0 65.7-0.2 119.4-0.5 119.4s-6.5-3.3-13.8-7.4c-7.3-4-33-18.2-57.2-31.6-24.2-13.3-46.5-25.6-49.5-27.3-6.7-3.7-111.3-60.7-155.6-84.8l-32.1-17.4-0.6-87.5c-1-121.3-0.9-151 0.3-151 1 0 6.7 3 57 30.1 15.7 8.4 35.3 18.8 43.5 23.2 8.3 4.3 16.8 8.9 19 10.3 2.2 1.3 4.3 2.4 4.8 2.4 0.9 0 0.9-11 0.1-20.2-0.5-5.2-1.1-6.9-2.4-7.3-1-0.3-2.9-1.6-4.4-2.8-1.4-1.2-6.9-4.4-12.3-7.1-17-8.4-89.3-47-89.3-47.6 0-0.4 13.2-7.9 29.3-16.7 16-8.9 37.5-20.7 47.7-26.3 56.1-31 135.9-74.6 173-94.5 16.2-8.7 33.1-17.8 37.5-20.1 4.4-2.4 8.3-4.4 8.6-4.4s26.1 13.4 57.3 29.9zm255.8 270.6-0.3 120-6.2 3.4c-9 4.9-62 35.1-76.7 43.7-6.9 3.9-34.1 19.7-60.5 34.9-54.9 31.7-77.5 45-117 68.5-15.4 9.2-29 17.2-30.2 17.9l-2.3 1.2v-240.9l14.3-8.4c7.8-4.7 25.5-15.1 39.2-23.3 108.9-64.5 238.5-139.1 239.4-137.8 0.4 0.5 0.5 54.8 0.3 120.8zm-0.2 262.8v116.2l-21.7 12.4c-65.8 37.5-170.3 99.1-229.5 135.3-22.3 13.6-40.9 24.8-41.2 24.8s-0.5-53-0.4-117.7l0.3-117.7 23.5-14.1c83.9-50.2 265.4-155.4 268.3-155.5 0.4 0 0.7 52.3 0.7 116.3zm-489.7-24.8c9.4 2 19.4 7.7 28.6 16.2 9.4 8.7 14.8 15.6 19.5 24.8 5.8 11.5 6.5 16.1 7.1 44.5l0.6 25.5 4.3 6.5c16.5 24.7 22.5 55.1 15 76.2-3.6 10.2-12.5 20.1-22.2 24.6-5.3 2.5-6.7 2.7-18.7 2.7-14.4 0-20.6-1.5-33.4-8-15.1-7.6-34.9-24.9-46.6-40.7-22.2-29.9-29.5-65-18.4-88.4 3.6-7.6 14.4-18.3 20.7-20.3l4.2-1.4v-16.1c0-24.3 1.5-30.8 9.1-38.5 8-8.4 16.6-10.5 30.2-7.6z" fill="#41108d"/><path d="m156 392.3v74.5l14.9 8.1c8.2 4.5 15.4 8.1 16 8.1 0.8 0 1.1-13.9 1.1-45.8v-45.7l2.6 4.5c7.2 12.4 39.8 70.9 53.9 96.7l16 29.2 14.4 7.8c8 4.3 14.8 7.9 15.3 8.1 0.4 0.2 0.8-31.8 0.8-71.1v-71.5l-15.6-8.6c-8.5-4.7-15.7-8.6-16-8.6-0.2 0-0.4 18.6-0.5 41.2 0 39.1-0.1 41.2-1.7 38.9-0.9-1.3-7-11.9-13.6-23.5-59.6-106.2-55.6-99.5-61.1-102.5-2.7-1.6-9.8-5.4-15.7-8.5l-10.8-5.8z" fill="#41108d"/><path d="m594.9 315.9c-31.6 5.9-61.5 25.3-80.2 52.1-9.8 14.2-14.1 26.6-14.1 41-0.1 14.9 4.2 22.5 14.9 26.5 7.3 2.8 23.1 1.6 43-3.3 20.1-5 25.4-5.7 30-4.2s6.5 4.4 6.5 10c0 13.9-17 30.2-40.9 39.2-8 3-9.5 3.2-21.1 3.2-9.2 0.1-13.6-0.4-16.7-1.5l-4.3-1.6-9.4 16.6c-7.1 12.4-9.2 16.8-8.2 17.3 3.3 1.9 13.7 3.8 20.2 3.8 32.7 0 76-23.3 98.5-52.9 14.9-19.6 19.9-43.8 12.3-58.8-2.4-4.8-3.8-6.2-8.4-8.6-5.4-2.8-5.7-2.9-17.5-2.4-8.8 0.4-16.4 1.5-28.5 4.2-9.9 2.2-19.4 3.8-23.8 3.9-6.9 0.1-7.5-0.1-9.8-2.7-1.8-2.1-2.4-4-2.4-7.6 0-21.1 36.3-44.5 62.4-40.2 3.9 0.6 7.9 1.2 8.9 1.4 1.5 0.1 4-3.6 11.3-16.3l9.3-16.5-3.7-1.3c-4.5-1.7-22-2.4-28.3-1.3z" fill="#41108d"/><path d="m602.5 577.1c-31.2 4.6-65.3 28.2-86.2 59.4-23.6 35.5-31.1 79.4-18 106.4 7.8 15.9 23.7 24.4 42.7 22.7 8.2-0.8 24.5-5.8 33.7-10.4 20.9-10.7 45.7-33.2 58.7-53.3l1.7-2.7-8.6-6.1c-4.7-3.3-8.9-6.1-9.4-6.1-0.4 0-2.3 2.1-4.2 4.7-5.6 8-19.6 21.8-27.2 27.1-13.9 9.5-23.6 13.2-35.2 13.2-12.1 0-19.5-4.9-24.6-16.6-3.4-7.5-3.9-24.3-1-36.8 3.8-16.3 12.2-31.5 25-44.9 18.1-19 41.4-28.1 59.9-23.3 3.5 0.9 6.5 1.6 6.7 1.6 0.4 0 16.3-27.3 17.1-29.4 1.3-3.5-19.7-7.2-31.1-5.5z" fill="#41108d"/><path d="m198 601.4c-6 2.2-7 5.1-7 21.6v14.5l6.8 1.8c8.9 2.3 21 8.5 30 15.2 4 3 7.5 5.5 7.7 5.5 1.2 0 0.4-23.1-1-28.3-3.3-12.9-10.8-22.8-20.8-27.6-7.7-3.7-11.3-4.3-15.7-2.7z" fill="#41108d"/><path d="m180.4 662.9c-13.7 3.5-20.5 13.3-20.6 29.6 0 10.2 2.5 19.5 8.7 32 6.3 12.8 15.6 25 24.6 32.4 10.8 8.7 25.1 15.2 36.1 16.6 7.6 0.9 17.6-2.3 22.6-7.3 4.8-4.8 8.2-14.7 8.2-23.5 0-13.3-7.7-33.3-18-46.9-6.4-8.4-19.1-20.3-26.3-24.6-11.1-6.7-27.1-10.4-35.3-8.3zm29.5 33.3c6.1 2.9 16.1 13 19.1 19.3 1.7 3.5 2.6 7.2 2.8 12.3l0.4 7.2-4 4c-3.7 3.7-4.4 4-9.6 4-7.2 0-12-2.4-18.9-9.4-12.8-13-15.9-28.4-7.3-36.4 3-2.7 4.4-3.2 8.3-3.2 2.7 0 6.5 0.9 9.2 2.2z" fill="#41108d"/></svg>
