<?xml version="1.0" encoding="UTF-8" standalone="no"?>
<svg
   width="1200"
   height="630"
   version="1.1"
   viewBox="0 0 317.5 166.69"
   id="svg943"
   sodipodi:docname="opengraph.svg"
   inkscape:version="1.4.4 (dcaf3e7d9e, 2026-05-05)"
   xmlns:inkscape="http://www.inkscape.org/namespaces/inkscape"
   xmlns:sodipodi="http://sodipodi.sourceforge.net/DTD/sodipodi-0.dtd"
   xmlns:xlink="http://www.w3.org/1999/xlink"
   xmlns="http://www.w3.org/2000/svg"
   xmlns:svg="http://www.w3.org/2000/svg">
  <sodipodi:namedview
     id="namedview943"
     pagecolor="#ffffff"
     bordercolor="#000000"
     borderopacity="0.25"
     inkscape:showpageshadow="2"
     inkscape:pageopacity="0.0"
     inkscape:pagecheckerboard="0"
     inkscape:deskcolor="#d1d1d1"
     showgrid="false"
     inkscape:zoom="0.48129913"
     inkscape:cx="622.27414"
     inkscape:cy="411.38657"
     inkscape:window-width="1440"
     inkscape:window-height="907"
     inkscape:window-x="0"
     inkscape:window-y="0"
     inkscape:window-maximized="0"
     inkscape:current-layer="svg943" />
  <defs
     id="defs6">
    <rect
       x="503.5817"
       y="221.85767"
       width="814.39024"
       height="207.77147"
       id="rect944" />
    <clipPath
       id="blob-grad-dots-03_clip">
      <rect
         width="160"
         height="200"
         fill="#fff"
         id="rect1" />
    </clipPath>
    <linearGradient
       id="blob-grad-dots-03_gradient"
       gradientUnits="userSpaceOnUse">
      <stop
         stop-color="#50f"
         offset="0"
         id="stop1" />
      <stop
         stop-color="#9c85f1"
         offset=".33"
         id="stop2" />
      <stop
         stop-color="#6dffd4"
         offset=".66"
         id="stop3" />
      <stop
         stop-color="#10f310"
         offset="1"
         id="stop4" />
    </linearGradient>
    <clipPath
       id="clip0_677_39">
      <rect
         width="211"
         height="363"
         fill="#fff"
         id="rect4" />
    </clipPath>
    <clipPath
       id="blob-grad-dots-01_clip">
      <rect
         width="194"
         height="222"
         fill="#fff"
         id="rect5" />
    </clipPath>
    <linearGradient
       id="linearGradient470"
       gradientUnits="userSpaceOnUse"
       xlink:href="#blob-grad-dots-03_gradient" />
    <clipPath
       id="clip0_677_39-6">
      <rect
         width="211"
         height="363"
         fill="#fff"
         id="rect6" />
    </clipPath>
  </defs>
  <rect
     style="fill:#e8e2fb;fill-opacity:1;stroke:#ffffff;stroke-width:0.264587"
     id="rect943"
     width="317.50476"
     height="166.69"
     x="-0.0023809499"
     y="0"
     sodipodi:insensitive="true" />
  <g
     id="g943"
     transform="translate(-60.564237,11.084806)">
    <path
       d="m 118.05513,32.282002 c -0.39683,-0.02578 -0.69697,0.146008 -1.26641,0.442289 -2.8848,1.512759 -11.20498,5.980587 -14.14254,7.598888 -4.793338,2.638533 -7.475847,4.124995 -8.663187,4.793423 -0.747585,0.413371 -2.207485,1.231316 -3.245308,1.811793 -1.037823,0.580478 -1.94372,1.134482 -2.014081,1.248818 -0.123131,0.184698 -0.131961,1.934925 -0.123166,16.314931 0.02639,22.066934 0.09668,30.642168 0.246201,30.949996 0.07036,0.131928 0.290212,0.334136 0.501295,0.448473 0.202288,0.114337 2.207661,1.231315 4.45921,2.480221 5.391403,2.990336 7.168016,3.993066 14.045796,7.924486 10.53654,6.03344 10.21992,5.85754 10.73003,5.91031 l 0.45736,0.0352 3.14857,-1.93492 c 6.19176,-3.79949 11.18738,-6.73706 21.0379,-12.374721 2.58577,-1.47758 4.06334,-2.374682 4.17768,-2.532994 l 0.18462,-0.2462 0.0264,-23.500537 c 0.0176,-22.673797 0.009,-23.509333 -0.14069,-23.764391 -0.12313,-0.193493 -0.61572,-0.501313 -1.9614,-1.22252 -0.98505,-0.527707 -3.20141,-1.72393 -4.91646,-2.647417 -1.71505,-0.932282 -5.41779,-2.911182 -8.22343,-4.397555 -2.80564,-1.486374 -6.00706,-3.183831 -7.12404,-3.781898 -1.10818,-0.589273 -3.09597,-1.635803 -4.40644,-2.321822 -1.60783,-0.841032 -2.27793,-1.200708 -2.78814,-1.233866 z"
       fill="#ffffff"
       id="path1"
       style="stroke-width:0.0879511" />
    <path
       d="m 116.78863,32.724308 c -2.8848,1.512759 -11.20497,5.980676 -14.14254,7.598976 -4.793336,2.638534 -7.475845,4.124908 -8.663185,4.793336 -0.747585,0.41337 -2.207573,1.231316 -3.245396,1.811793 -1.037823,0.580477 -1.94372,1.134569 -2.014081,1.248906 -0.123131,0.184697 -0.131926,1.934924 -0.123131,16.314931 0.02639,22.066935 0.09675,30.642166 0.246263,30.949998 0.07036,0.131925 0.290239,0.334212 0.501321,0.448549 0.202288,0.114337 2.207573,1.231315 4.459122,2.480221 5.391403,2.990342 7.168017,3.992982 14.045797,7.924402 10.53654,6.03344 10.21991,5.85754 10.73003,5.91031 l 0.45735,0.0352 3.14865,-1.93493 c 6.19176,-3.79948 11.18738,-6.73705 21.0379,-12.374716 2.58577,-1.47758 4.06335,-2.374682 4.17768,-2.532994 l 0.1847,-0.246262 0.0264,-23.500537 c 0.0176,-22.673797 0.009,-23.509333 -0.14072,-23.764391 -0.12313,-0.193492 -0.61566,-0.501321 -1.96131,-1.22252 -0.98505,-0.527707 -3.20142,-1.723842 -4.91646,-2.647329 -1.71505,-0.932282 -5.41779,-2.911182 -8.22343,-4.397556 -2.80564,-1.486373 -6.00706,-3.18383 -7.12404,-3.781897 -1.10819,-0.589273 -3.09588,-1.635891 -4.40636,-2.32191 -2.85841,-1.495169 -2.75287,-1.468783 -4.05454,-0.79156 z m 6.34127,4.292015 c 2.74408,1.442398 4.98683,2.656123 4.98683,2.682509 0,0.03518 -1.7942,1.046618 -3.98418,2.242753 -5.00442,2.735279 -8.38174,4.599843 -11.63594,6.446816 -5.68164,3.219011 -8.75993,4.995624 -8.88306,5.136345 -0.044,0.05277 -0.31662,0.246264 -0.58927,0.422166 l -0.51012,0.316624 v 6.024651 l 0.81795,0.41337 c 0.43975,0.228673 2.11962,1.143365 3.71154,2.040466 l 2.90238,1.6183 0.0264,-2.972747 0.0176,-2.963953 0.55409,-0.334214 c 0.29903,-0.184697 0.56289,-0.3606 0.58927,-0.39578 0.0968,-0.123131 16.54361,-9.507515 22.36597,-12.770501 l 2.18119,-1.222521 2.08444,1.116979 c 1.14336,0.615658 3.12226,1.671071 4.39755,2.348295 1.2665,0.677223 2.27794,1.266496 2.24276,1.301676 -0.0352,0.03518 -2.1636,1.257701 -4.72298,2.71769 -6.81621,3.887439 -10.55413,6.068627 -20.51899,11.978941 l -0.28144,0.167107 -2.18119,-1.22252 c -3.12227,-1.741432 -5.05719,-2.814436 -5.23309,-2.884797 -0.14952,-0.05277 -0.15832,0.03518 -0.15832,1.099389 v 1.143365 l 0.37819,0.211083 c 0.60687,0.343009 5.16273,2.893591 5.67285,3.16624 l 0.45735,0.255058 v 10.501363 c 0,5.778387 -0.0176,10.501361 -0.044,10.501361 -0.0264,0 -0.57168,-0.290237 -1.21373,-0.650837 -0.64204,-0.351804 -2.90238,-1.60071 -5.0308,-2.779254 -2.12841,-1.169751 -4.08972,-2.251549 -4.35358,-2.401066 -0.58927,-0.32542 -9.788957,-5.338633 -13.685191,-7.458255 l -2.823231,-1.530349 -0.05277,-7.695722 c -0.08795,-10.66847 -0.07916,-13.280618 0.02639,-13.280618 0.08795,0 0.589272,0.263853 5.013213,2.647328 1.380833,0.738789 3.104674,1.653481 3.825874,2.040466 0.729985,0.37819 1.477575,0.782765 1.671065,0.905896 0.19349,0.114337 0.37819,0.211083 0.42217,0.211083 0.0792,0 0.0792,-0.967462 0.009,-1.776612 -0.044,-0.457346 -0.0968,-0.606863 -0.21108,-0.642044 -0.088,-0.02639 -0.25506,-0.140721 -0.38699,-0.246263 -0.12313,-0.105541 -0.60686,-0.386985 -1.08179,-0.624452 -1.495169,-0.73879 -7.854035,-4.133703 -7.854035,-4.186473 0,-0.03518 1.160955,-0.694814 2.576968,-1.468784 1.407218,-0.782765 3.298167,-1.820588 4.195268,-2.313114 4.934049,-2.726485 11.952549,-6.561153 15.215539,-8.31138 1.42481,-0.765175 2.91118,-1.56553 3.29817,-1.767818 0.38698,-0.211083 0.72999,-0.386985 0.75637,-0.386985 0.0264,0 2.29553,1.178545 5.0396,2.629739 z m 22.4979,23.799571 -0.0264,10.554133 -0.54529,0.299034 c -0.79156,0.43096 -5.45297,3.087084 -6.74585,3.843463 -0.60687,0.34301 -2.99914,1.732637 -5.32105,3.069494 -4.82851,2.788052 -6.81621,3.9578 -10.29028,6.024651 -1.35444,0.809152 -2.55058,1.512759 -2.65612,1.574326 l -0.20229,0.105541 V 65.099113 l 1.2577,-0.73879 c 0.68602,-0.41337 2.24276,-1.328061 3.44769,-2.04926 9.57787,-5.672847 20.97634,-12.234 21.05549,-12.119664 0.0352,0.04398 0.044,4.819721 0.0264,10.624495 z m -0.0176,23.113551 v 10.219919 l -1.90854,1.090594 c -5.78718,3.298168 -14.97808,8.715962 -20.18478,11.899782 -1.96131,1.19614 -3.5972,2.18119 -3.62359,2.18119 -0.0264,0 -0.044,-4.66141 -0.0352,-10.351843 l 0.0264,-10.351847 2.06685,-1.24011 c 7.3791,-4.415146 23.34222,-13.667603 23.59728,-13.676398 0.0352,0 0.0616,4.599843 0.0616,10.228713 z m -43.06965,-2.181187 c 0.82674,0.175903 1.70625,0.677223 2.5154,1.424809 0.82674,0.765174 1.30168,1.372036 1.71505,2.181187 0.51011,1.011437 0.57168,1.416014 0.62445,3.913823 l 0.0528,2.242754 0.37819,0.571682 c 1.45119,2.172392 1.9789,4.846108 1.31927,6.701875 -0.31663,0.897102 -1.09939,1.767822 -1.95252,2.163602 -0.46614,0.21987 -0.58927,0.23746 -1.64468,0.23746 -1.2665,0 -1.8118,-0.13192 -2.93757,-0.70361 -1.32806,-0.668424 -3.069495,-2.189977 -4.098523,-3.579606 -1.952514,-2.629737 -2.594557,-5.71682 -1.6183,-7.774878 0.316624,-0.668428 1.266496,-1.609505 1.820588,-1.785406 L 99.0841,87.218818 v -1.416014 c 0,-2.137212 0.131926,-2.708895 0.800355,-3.386118 0.703605,-0.738788 1.459985,-0.923486 2.656125,-0.668428 z"
       fill="#41108d"
       id="path2"
       style="stroke-width:0.0879511" />
    <path
       d="m 98.204558,65.547663 v 6.552358 l 1.310472,0.712404 c 0.7212,0.39578 1.35445,0.712404 1.40722,0.712404 0.0704,0 0.0967,-1.22252 0.0967,-4.028161 v -4.019365 l 0.22868,0.39578 c 0.63324,1.090593 3.50045,6.235734 4.74056,8.504872 l 1.40722,2.568173 1.2665,0.686018 c 0.7036,0.37819 1.30167,0.694814 1.34565,0.712404 0.0352,0.01759 0.0704,-2.796845 0.0704,-6.253324 v -6.288504 l -1.37204,-0.75638 c -0.74758,-0.41337 -1.38083,-0.756379 -1.40722,-0.756379 -0.0176,0 -0.0352,1.63589 -0.044,3.623585 0,3.438889 -0.009,3.623586 -0.14952,3.421299 -0.0792,-0.114337 -0.61566,-1.046619 -1.19613,-2.066851 -5.24189,-9.340409 -4.89009,-8.751136 -5.37382,-9.01499 -0.23747,-0.140721 -0.861918,-0.474935 -1.38083,-0.747584 l -0.949872,-0.510117 z"
       fill="#41108d"
       id="path3"
       style="stroke-width:0.0879511" />
    <path
       d="m 136.8063,58.828199 c -2.77925,0.518911 -5.40899,2.225163 -7.05368,4.582252 -0.86192,1.248906 -1.24011,2.3395 -1.24011,3.605996 -0.009,1.310472 0.3694,1.9789 1.31047,2.330705 0.64205,0.246263 2.03167,0.140721 3.7819,-0.290239 1.76782,-0.439756 2.23396,-0.501322 2.63853,-0.369395 0.40458,0.131927 0.57169,0.386985 0.57169,0.879511 0,1.222521 -1.49517,2.656124 -3.5972,3.447684 -0.70361,0.263853 -0.83554,0.281443 -1.85577,0.281443 -0.80915,0.0088 -1.19614,-0.03518 -1.46879,-0.131926 l -0.37819,-0.140722 -0.82674,1.459988 c -0.62445,1.090594 -0.80915,1.477579 -0.72119,1.521555 0.29023,0.167107 1.20493,0.334214 1.77661,0.334214 2.876,0 6.68428,-2.049261 8.66318,-4.652614 1.31047,-1.723842 1.75023,-3.852259 1.0818,-5.171525 -0.21108,-0.422166 -0.33421,-0.545297 -0.73879,-0.75638 -0.47494,-0.246263 -0.50132,-0.255058 -1.53914,-0.211083 -0.77397,0.03518 -1.4424,0.131927 -2.50661,0.369395 -0.87072,0.193493 -1.70625,0.334214 -2.09324,0.343009 -0.60686,0.0088 -0.65963,-0.0088 -0.86192,-0.237468 -0.15831,-0.184697 -0.21108,-0.351804 -0.21108,-0.668428 0,-1.855768 3.19263,-3.913824 5.48815,-3.535635 0.34301,0.05277 0.69481,0.105542 0.78276,0.123132 0.13193,0.0088 0.35181,-0.316624 0.99385,-1.433603 l 0.81795,-1.451194 -0.32542,-0.114336 c -0.39578,-0.149517 -1.93493,-0.211083 -2.48902,-0.114336 z"
       fill="#41108d"
       id="path4"
       style="stroke-width:0.0879511" />
    <path
       d="m 137.47473,81.801028 c -2.74407,0.404577 -5.74321,2.480224 -7.58139,5.224298 -2.07564,3.122265 -2.73528,6.983317 -1.58312,9.357996 0.68602,1.398423 2.08445,2.146008 3.75552,1.996492 0.7212,-0.07036 2.1548,-0.510116 2.96395,-0.914691 1.83818,-0.941077 4.01936,-2.919977 5.16273,-4.687795 l 0.14952,-0.237469 -0.75638,-0.5365 c -0.41337,-0.290241 -0.78277,-0.536503 -0.82674,-0.536503 -0.0352,0 -0.20229,0.184699 -0.3694,0.41337 -0.49252,0.70361 -1.72384,1.917334 -2.39227,2.383475 -1.22252,0.835536 -2.07565,1.160956 -3.09588,1.160956 -1.06421,0 -1.71504,-0.430962 -2.1636,-1.459989 -0.29903,-0.659633 -0.343,-2.137213 -0.088,-3.236602 0.33422,-1.433602 1.07301,-2.770458 2.19878,-3.949005 1.59192,-1.671069 3.64118,-2.471425 5.26827,-2.04926 0.30783,0.07916 0.57168,0.140721 0.58928,0.140721 0.0352,0 1.4336,-2.401066 1.50396,-2.585762 0.11434,-0.307829 -1.73264,-0.633248 -2.73528,-0.483732 z"
       fill="#41108d"
       id="path5"
       style="stroke-width:0.0879511" />
    <path
       d="m 101.89851,83.938241 c -0.52771,0.193491 -0.61566,0.448549 -0.61566,1.899745 v 1.27529 l 0.59806,0.158312 c 0.78277,0.202288 1.84698,0.747586 2.63854,1.336857 0.3518,0.263853 0.65963,0.483732 0.67722,0.483732 0.10554,0 0.0352,-2.031671 -0.0879,-2.489017 -0.29024,-1.134569 -0.94987,-2.005287 -1.82938,-2.42745 -0.67723,-0.32542 -0.99385,-0.37819 -1.38083,-0.237469 z"
       fill="#41108d"
       id="path6"
       style="stroke-width:0.0879511" />
    <path
       d="m 100.35057,89.347235 c -1.204935,0.307828 -1.803002,1.169748 -1.811797,2.603353 0,0.897102 0.219877,1.715047 0.765174,2.814436 0.554092,1.125773 1.372033,2.198776 2.163593,2.849616 0.94988,0.765174 2.20758,1.336856 3.17504,1.459989 0.66843,0.07915 1.54794,-0.20229 1.9877,-0.642045 0.42216,-0.422165 0.72119,-1.292881 0.72119,-2.06685 0,-1.169751 -0.67722,-2.928773 -1.58312,-4.124908 -0.56288,-0.73879 -1.67986,-1.785407 -2.31311,-2.163597 -0.97626,-0.589273 -2.38348,-0.914691 -3.10467,-0.729994 z m 2.59455,2.928773 c 0.53651,0.255058 1.41602,1.143364 1.67987,1.697455 0.14952,0.307829 0.22867,0.633249 0.24626,1.081799 l 0.0352,0.633248 -0.3518,0.351804 c -0.32542,0.32542 -0.38699,0.351804 -0.84433,0.351804 -0.63325,0 -1.05542,-0.211083 -1.66228,-0.82674 -1.12577,-1.143365 -1.39842,-2.497812 -0.64204,-3.20142 0.26385,-0.237469 0.38698,-0.281445 0.72999,-0.281445 0.23747,0 0.57169,0.07916 0.80915,0.193495 z"
       fill="#41108d"
       id="path7"
       style="stroke-width:0.0879511" />
  </g>
  <text
     xml:space="preserve"
     transform="matrix(0.2645873,0,0,0.2645873,-29.818621,-1.141125)"
     id="text943"
     style="font-weight:500;font-size:56px;line-height:1.1;font-family:'Plus Jakarta Sans';-inkscape-font-specification:'Plus Jakarta Sans Medium';writing-mode:lr-tb;direction:ltr;white-space:pre;shape-inside:url(#rect944);fill:#e8e2fb;fill-opacity:1;stroke:#ffffff"><tspan
       x="503.58203"
       y="270.79076"
       id="tspan2"><tspan
         style="font-family:'NYU Perstare';-inkscape-font-specification:'NYU Perstare Medium';fill:#111018;stroke:none"
         id="tspan1">NYU
</tspan></tspan><tspan
       x="503.58203"
       y="335.31285"
       id="tspan4"><tspan
         style="font-weight:normal;font-family:'NYU Perstare';-inkscape-font-specification:'NYU Perstare, @wght=400';font-variation-settings:'wght' 400"
         id="tspan3">Software Supply Chain </tspan></tspan><tspan
       x="503.58203"
       y="399.83495"
       id="tspan6"><tspan
         style="font-weight:normal;font-family:'NYU Perstare';-inkscape-font-specification:'NYU Perstare, @wght=400';font-variation-settings:'wght' 400"
         id="tspan5">Security Operations Center</tspan></tspan></text>
</svg>
