<?xml version="1.0" encoding="UTF-8" standalone="no"?>
<!-- Created with Inkscape (http://www.inkscape.org/) -->

<svg
   width="300"
   height="300"
   viewBox="0 0 79.374998 79.375"
   version="1.1"
   id="svg1"
   sodipodi:docname="jiahao.svg"
   inkscape:version="1.4.4 (dcaf3e7d9e, 2026-05-05)"
   xmlns:inkscape="http://www.inkscape.org/namespaces/inkscape"
   xmlns:sodipodi="http://sodipodi.sourceforge.net/DTD/sodipodi-0.dtd"
   xmlns="http://www.w3.org/2000/svg"
   xmlns:svg="http://www.w3.org/2000/svg">
  <sodipodi:namedview
     id="namedview1"
     pagecolor="#ffffff"
     bordercolor="#666666"
     borderopacity="1.0"
     inkscape:showpageshadow="2"
     inkscape:pageopacity="0.0"
     inkscape:pagecheckerboard="0"
     inkscape:deskcolor="#d1d1d1"
     showgrid="false"
     inkscape:zoom="0.28343197"
     inkscape:cx="-509.82252"
     inkscape:cy="1407.7452"
     inkscape:window-width="3840"
     inkscape:window-height="2160"
     inkscape:window-x="0"
     inkscape:window-y="0"
     inkscape:window-maximized="0"
     inkscape:current-layer="svg1" />
  <defs
     id="defs1" />
  <rect
     style="fill:#e8e2fb;fill-opacity:1;stroke:none;stroke-width:0.499999;paint-order:stroke fill markers"
     id="rect1"
     width="79.375"
     height="79.375"
     x="0"
     y="0"
     sodipodi:insensitive="true" />
  <path
     style="font-size:28.2222px;line-height:1.25;font-family:'NYU Perstare';-inkscape-font-specification:'NYU Perstare, @wght=500';font-variation-settings:'wght' 500;text-align:center;letter-spacing:1.32292px;text-anchor:middle;fill:#3d1a9e;stroke-width:0.264583"
     d="m 28.854749,49.70639 q -2.342442,0 -3.922886,-0.733778 -1.580443,-0.761999 -2.427109,-2.144887 -0.818444,-1.41111 -0.931332,-3.358442 l 3.781774,-0.818443 q 0.112889,2.031998 0.959555,2.935108 0.846666,0.903111 2.511776,0.903111 1.806221,0 2.652887,-0.987777 0.846666,-1.015999 0.846666,-3.33022 V 29.668627 h 3.781775 v 12.502435 q 0,3.725331 -1.721554,5.64444 -1.721555,1.890888 -5.531552,1.890888 z M 46.710237,42.14284 39.42891,29.668627 h 4.289774 l 4.910663,8.692438 4.882441,-8.692438 h 4.289774 l -7.30955,12.417769 v 7.337772 h -3.781775 z"
     id="text2"
     aria-label="JY" />
</svg>
